<?xml version="1.0" standalone="no"?><!DOCTYPE svg PUBLIC "-//W3C//DTD SVG 1.1//EN" "http://www.w3.org/Graphics/SVG/1.1/DTD/svg11.dtd"><svg height="1024" node-id="1" sillyvg="true" template-height="1024" template-width="1024" version="1.1" viewBox="0 0 1024 1024" width="1024" xmlns="http://www.w3.org/2000/svg" xmlns:xlink="http://www.w3.org/1999/xlink"><defs node-id="116"></defs><g node-id="423"><g node-id="451"><g node-id="479"><path d="M 525.00 643.80 L 210.60 305.80 L 210.60 825.40 L 525.00 643.80 Z" fill="#dd1e33" fill-rule="nonzero" group-id="1,29,57" node-id="124" stroke="none" target-height="519.6001" target-width="314.3999" target-x="210.6001" target-y="305.79993"></path></g></g></g><g node-id="424"><g node-id="452"><g node-id="480"><path d="M 616.60 180.60 L 591.80 175.00 L 566.24 165.62 L 549.80 155.80 L 536.54 144.59 L 528.20 135.80 L 524.20 129.00 L 211.00 309.00 L 219.00 323.00 L 229.62 337.89 L 240.20 349.00 L 248.27 354.80 L 259.34 359.54 L 274.20 363.00 L 295.00 364.60 L 616.60 180.60 Z" fill="#e7e5e5" fill-rule="nonzero" group-id="2,30,58" node-id="135" stroke="none" target-height="235.59998" target-width="405.6001" target-x="211" target-y="129"></path></g></g></g><g node-id="425"><g node-id="453"><g node-id="481"><path d="M 616.60 177.80 L 602.60 177.80 L 289.40 357.80 L 300.60 364.60 L 616.60 177.80 Z" fill="#63a343" fill-rule="nonzero" group-id="3,31,59" node-id="146" stroke="none" target-height="186.80005" target-width="327.19995" target-x="289.40015" target-y="177.79993"></path></g></g></g><g node-id="426"><g node-id="454"><g node-id="482"><path d="M 526.20 131.80 L 522.60 125.40 L 204.20 308.60 L 215.40 315.80 L 526.20 131.80 Z" fill="#63a343" fill-rule="nonzero" group-id="4,32,60" node-id="157" stroke="none" target-height="190.3999" target-width="322" target-x="204.19995" target-y="125.400024"></path></g></g></g><g node-id="427"><g node-id="455"><g node-id="483"><path d="M 300.60 364.60 L 300.20 356.20 L 297.58 353.58 L 291.00 351.00 L 207.80 306.60 L 197.80 316.20 L 197.80 804.60 L 198.20 817.00 L 200.00 823.03 L 203.00 825.40 L 289.40 872.20 L 294.25 871.22 L 298.60 868.20 L 301.28 864.16 L 302.20 859.00 L 300.60 364.60 Z" fill="#63a343" fill-rule="nonzero" group-id="5,33,61" node-id="168" stroke="none" target-height="565.6" target-width="104.3999" target-x="197.80005" target-y="306.59998"></path></g></g></g><g node-id="428"><g node-id="456"><g node-id="484"><path d="M 300.60 364.60 L 295.00 871.00 L 616.60 697.40 L 616.60 177.80 L 300.60 364.60 Z" fill="#4f823c" fill-rule="nonzero" group-id="6,34,62" node-id="179" stroke="none" target-height="693.2001" target-width="321.6001" target-x="295" target-y="177.79993"></path></g></g></g><g node-id="429"><g node-id="457"><g node-id="485"><path d="M 562.20 315.80 L 562.20 287.00 L 374.60 394.60 L 377.40 429.40 L 562.20 315.80 Z" fill="#ffc23a" fill-rule="nonzero" group-id="7,35,63" node-id="190" stroke="none" target-height="142.40002" target-width="187.59985" target-x="374.6001" target-y="287"></path></g></g></g><g node-id="430"><g node-id="458"><g node-id="486"><path d="M 562.20 370.20 L 562.20 341.40 L 374.60 449.40 L 377.40 484.20 L 562.20 370.20 Z" fill="#ffc23a" fill-rule="nonzero" group-id="8,36,64" node-id="201" stroke="none" target-height="142.79993" target-width="187.59985" target-x="374.6001" target-y="341.40002"></path></g></g></g><g node-id="431"><g node-id="459"><g node-id="487"><path d="M 734.60 670.20 L 420.20 331.80 L 420.20 851.80 L 734.60 670.20 Z" fill="#dd1e33" fill-rule="nonzero" group-id="9,37,65" node-id="212" stroke="none" target-height="520" target-width="314.3999" target-x="420.19995" target-y="331.79993"></path></g></g></g><g node-id="432"><g node-id="460"><g node-id="488"><path d="M 826.20 207.00 L 801.40 201.40 L 775.84 192.02 L 759.40 182.20 L 746.17 170.90 L 737.80 161.80 L 733.80 155.00 L 420.60 335.00 L 428.20 349.40 L 438.82 364.29 L 449.40 375.40 L 457.43 381.01 L 468.49 385.74 L 483.40 389.40 L 504.20 391.00 L 826.20 207.00 Z" fill="#e7e5e5" fill-rule="nonzero" group-id="10,38,66" node-id="223" stroke="none" target-height="236" target-width="405.59985" target-x="420.6001" target-y="155"></path></g></g></g><g node-id="433"><g node-id="461"><g node-id="489"><path d="M 826.20 204.20 L 812.20 204.20 L 499.00 384.20 L 510.20 391.00 L 826.20 204.20 Z" fill="#ea5645" fill-rule="nonzero" group-id="11,39,67" node-id="234" stroke="none" target-height="186.80005" target-width="327.19995" target-x="499" target-y="204.19995"></path></g></g></g><g node-id="434"><g node-id="462"><g node-id="490"><path d="M 735.40 158.20 L 732.20 151.80 L 413.80 335.00 L 425.00 341.80 L 735.40 158.20 Z" fill="#ea5645" fill-rule="nonzero" group-id="12,40,68" node-id="245" stroke="none" target-height="190" target-width="321.6001" target-x="413.80005" target-y="151.79993"></path></g></g></g><g node-id="435"><g node-id="463"><g node-id="491"><path d="M 510.20 391.00 L 509.80 382.60 L 507.18 379.98 L 500.60 377.40 L 417.40 333.00 L 412.60 337.40 L 407.40 342.60 L 407.40 831.00 L 407.80 843.40 L 409.51 849.48 L 412.20 851.80 L 499.00 898.60 L 503.78 897.61 L 507.80 894.60 L 510.82 890.25 L 511.80 885.40 L 510.20 391.00 Z" fill="#ea5645" fill-rule="nonzero" group-id="13,41,69" node-id="256" stroke="none" target-height="565.6" target-width="104.3999" target-x="407.40015" target-y="333"></path></g></g></g><g node-id="436"><g node-id="464"><g node-id="492"><path d="M 549.80 155.80 L 541.71 149.68 L 533.00 140.60 L 526.20 131.80 L 219.80 313.00 L 250.20 329.00 L 549.80 155.80 Z" fill="#cececd" fill-rule="nonzero" group-id="14,42,70" node-id="267" stroke="none" target-height="197.20007" target-width="330" target-x="219.80005" target-y="131.79993"></path></g></g></g><g node-id="437"><g node-id="465"><g node-id="493"><path d="M 761.40 183.80 L 753.06 177.69 L 743.00 168.20 L 734.60 158.60 L 428.20 340.20 L 458.60 356.20 L 761.40 183.80 Z" fill="#cececd" fill-rule="nonzero" group-id="15,43,71" node-id="278" stroke="none" target-height="197.59998" target-width="333.2002" target-x="428.19995" target-y="158.59998"></path></g></g></g><g node-id="438"><g node-id="466"><g node-id="494"><path d="M 521.40 285.00 L 512.60 278.20 L 413.80 335.00 L 407.40 342.60 L 510.20 391.00 L 608.60 333.00 L 598.60 326.60 L 506.60 379.80 L 429.40 339.40 L 521.40 285.00 Z" fill="#d13431" fill-rule="nonzero" group-id="16,44,72" node-id="289" stroke="none" target-height="112.80005" target-width="201.19995" target-x="407.40015" target-y="278.19995"></path></g></g></g><g node-id="439"><g node-id="467"><g node-id="495"><path d="M 300.60 364.60 L 399.00 306.60 L 389.40 299.40 L 298.20 351.80 L 221.80 312.20 L 313.00 258.20 L 304.20 251.40 L 197.80 312.60 L 197.80 316.20 L 300.60 364.60 Z" fill="#4f823c" fill-rule="nonzero" group-id="17,45,73" node-id="300" stroke="none" target-height="113.19995" target-width="201.19995" target-x="197.80005" target-y="251.40002"></path></g></g></g><g node-id="440"><g node-id="468"><g node-id="496"><path d="M 436.20 356.20 L 407.40 342.60 L 407.40 851.80 L 431.80 862.20 L 436.20 356.20 Z" fill="#d13431" fill-rule="nonzero" group-id="18,46,74" node-id="311" stroke="none" target-height="519.6" target-width="28.799805" target-x="407.40015" target-y="342.59998"></path></g></g></g><g node-id="441"><g node-id="469"><g node-id="497"><path d="M 511.80 488.60 L 512.60 470.20 L 407.40 421.00 L 407.40 437.00 L 511.80 488.60 Z" fill="#119998" fill-rule="nonzero" group-id="19,47,75" node-id="322" stroke="none" target-height="67.599976" target-width="105.19995" target-x="407.40015" target-y="421"></path></g></g></g><g node-id="442"><g node-id="470"><g node-id="498"><path d="M 511.80 525.00 L 512.60 506.60 L 407.40 457.40 L 407.40 473.40 L 511.80 525.00 Z" fill="#ffc23a" fill-rule="nonzero" group-id="20,48,76" node-id="333" stroke="none" target-height="67.599976" target-width="105.19995" target-x="407.40015" target-y="457.40002"></path></g></g></g><g node-id="443"><g node-id="471"><g node-id="499"><path d="M 511.80 561.40 L 512.60 543.00 L 407.40 493.80 L 407.40 509.80 L 511.80 561.40 Z" fill="#119998" fill-rule="nonzero" group-id="21,49,77" node-id="344" stroke="none" target-height="67.6001" target-width="105.19995" target-x="407.40015" target-y="493.79993"></path></g></g></g><g node-id="444"><g node-id="472"><g node-id="500"><path d="M 826.20 204.20 L 510.20 391.00 L 504.60 897.00 L 826.20 723.80 L 826.20 204.20 Z" fill="#d13431" fill-rule="nonzero" group-id="22,50,78" node-id="355" stroke="none" target-height="692.80005" target-width="321.59985" target-x="504.6001" target-y="204.19995"></path></g></g></g><g node-id="445"><g node-id="473"><g node-id="501"><path d="M 583.80 421.00 L 587.00 455.80 L 771.80 341.80 L 771.80 313.00 L 583.80 421.00 Z" fill="#119998" fill-rule="nonzero" group-id="23,51,79" node-id="366" stroke="none" target-height="142.79993" target-width="188" target-x="583.80005" target-y="313"></path></g></g></g><g node-id="446"><g node-id="474"><g node-id="502"><path d="M 583.80 475.80 L 587.00 510.60 L 771.80 396.60 L 771.80 367.80 L 583.80 475.80 Z" fill="#119998" fill-rule="nonzero" group-id="24,52,80" node-id="377" stroke="none" target-height="142.80005" target-width="188" target-x="583.80005" target-y="367.79993"></path></g></g></g><g node-id="447"><g node-id="475"><g node-id="503"><path d="M 220.60 327.00 L 197.80 316.20 L 197.80 825.40 L 224.20 837.00 L 220.60 327.00 Z" fill="#4f823c" fill-rule="nonzero" group-id="25,53,81" node-id="388" stroke="none" target-height="520.80005" target-width="26.399902" target-x="197.80005" target-y="316.19995"></path></g></g></g><g node-id="448"><g node-id="476"><g node-id="504"><path d="M 197.80 394.60 L 197.80 410.60 L 299.80 461.00 L 299.80 442.60 L 197.80 394.60 Z" fill="#ffc23a" fill-rule="nonzero" group-id="26,54,82" node-id="399" stroke="none" target-height="66.400024" target-width="102" target-x="197.80005" target-y="394.59998"></path></g></g></g><g node-id="449"><g node-id="477"><g node-id="505"><path d="M 197.80 431.00 L 197.80 447.00 L 299.40 497.00 L 299.80 479.00 L 197.80 431.00 Z" fill="#ffc23a" fill-rule="nonzero" group-id="27,55,83" node-id="410" stroke="none" target-height="66" target-width="102" target-x="197.80005" target-y="431"></path></g></g></g><path d="M 197.80 467.80 L 197.80 483.80 L 299.00 533.40 L 299.00 515.00 L 197.80 467.80 Z" fill="#ffc23a" fill-rule="nonzero" group-id="28,56,84" node-id="421" stroke="none" target-height="65.6001" target-width="101.19995" target-x="197.80005" target-y="467.79993"></path></svg>